<?xml version="1.0" encoding="UTF-8" standalone="no"?>
<svg xmlns="http://www.w3.org/2000/svg" height="133" width="300" version="1.1">
	<g transform="matrix(0.7239155,0,0,0.72377758,-102.33486,-291.93139)">
		<path d="m396.1,408.99c5.936,6.99,2.029,18.436,2.951,26.113-1.717,4.316-5.15,9.244-9.934,11.018-0.629,1.529-2.207,1.357-3.182,2.617,5.734,0.744,9.348-4.283,14.895-5.02,1.807-2.299,4.93-6.568,8.795-4.99,1.896,0.336,3.725,2.273,4.822,3.717-0.281,2.16-0.713,4.145-2.402,5.648,1.887,8.799-7.293,13.072-13.43,16.598-2.734,0.541-4.76,2.93-7.883,2.701-4.789,1.012-9.68,0.668-14.514-0.654-9.436-0.637-15.791-9.281-20.877-15.547-0.402-1.754-0.443-3.35-1.025-5.037-5.367,5.631,2.328,11.898-1.072,17.754,2.105,1.553,0.127,3.918-0.674,5.645-1.494,1.656-4.064,2.557-6.496,3.34-2.441-0.594-5.141-0.004-6.652-2.629-1.154-4.965-2.189-9.055-1.344-14.518-1.121-1.432-3.344-0.004-4.775-0.977-0.127,4.777,1.857,11.592-2.723,15.047,0.586,1.564-0.594,2.975-1.945,3.65-3.273,0.648-7.297-0.406-9.307-3.305-2.248-4.691,0.938-12.6-5.027-14.768-4.902-2.08,0.992-10.52-5.668-8.779-2.055,0.721-4.236,2.094-6.693,1.406-0.168,0.307-0.512,0.504-0.674,0.797-1.789,7.941,3.943,18.699-5.363,23.811-2.889,1.926-6.363,2.043-9.193,0.344-4.695-5.953-2.633-15.842-2.904-22.727-2.332-2.166-6.422-0.26-9.201-1.336-3.834-0.486-7.674-1.164-10.855-3.525-2.018-2.582-4.893-5.104-3.266-8.561,0.758-2.361,1.68-5.48,4.811-6.137,6.121-2.617,12.99,1.072,19.006-0.967,0.025-3.049,0.598-6.744,3.848-8.014,3.992,0.215,9.645-7.66,12.834-0.434,0.967,2.779-1.41,5.434,0.766,7.865,3.555-2.6,9.369-0.344,12.313-4.023,6.346,2.398,0.982-6.77,7.238-6.455,1.49-1.691,1.736-4.031,3.582-5.686,3.057-1.783,5.756,1.223,7.568,3.342,0.703,3.863,1.193,8.824-0.049,12.574,4.248,2.453-2.73,10.639,5.053,9.68,2.406-8.494-6.953-17.959,1.139-25.293,2.711-0.424,2.248-3.533,4.324-4.426,2.209-1.07,4.684-0.309,6.764,0.402,1.076,0.813,1.289,1.914,2.215,2.754,1.504,8.098-0.447,16.725,1.215,24.389,1.221-9.418,6.969-17.322,13.32-24.945,3.5-2.574,7.982-3.834,11.717-6.279,3.223-1.586,7.322-2.23,11.182-1.568,2.491,2.06,4.098,3.546,6.77,5.388z"/>
		<path fill="#ee3133" d="m394.86,409.34c0.285,2.127,1.57,4.668,2.34,7,0.541,4.053-0.217,7.879-0.451,11.818-5.434,6.236-11.693,15.785-22.342,13.691-2.717,0.934-1.244,4.309-0.992,5.949,2.014,3.369,6.338,3.086,9.334,4.434,7.828,0.711,11.719-6.615,19.313-6.58,2.545-1.848,3.004-4.496,5.563-5.279,1.582,0.256,3.002,1.578,4.236,2.164-0.574,7.891-10.758,9.879-16.1,15.15-5.154,0.861-10.783,3.963-16.041,1.352-7.9,1.607-9.943-5.705-14.865-9.637-1.172-3.211-0.809-6.986-1.588-10.307-4.215-5.768,1.998-11.01,3.049-16.615,5.609-6.945,10.021-19.541,22.244-17.201,2.214,0.927,3.868,3.983,6.3,4.061z"/>
		<path fill="#ee3133" d="m349.79,412.57c1.938,9.459-2.705,20.131,3.438,27.732,1.297,2.42-1.57,4.295-2.141,6.316-2.271,5.17,1.156,9.801,0.852,15.076-1.127,2.158-3.412,1.904-5.807,1.695-2.34-1.156-0.695-4.773-1.813-6.699-1.859-3.043,1.891-9.93-4.514-9.691-1.682,1.508-4.504,0.607-6.744,1.057-5.504,5.625,1.563,12.764-3.465,18.66-1.871,0.57-3.305-0.836-4.236-2.154,0.176-5.078-1.031-9.621-2.072-14.217-1.428-1.713-6.297-2.076-4.008-5.756,0.578-3.395,5.623-3.316,5.635-6.895,1.303-7.117,0.039-14.141,0.123-21.162,0.967-1.531,2.344-1.9,4.068-1.787,0.129,4.137,3.604,8.246,0.799,12.27,2.232,3.563,0.273,7.348,1.611,11.215,1.855,3.064,6.439,2.248,9.57,1.684,1.025-0.678,2.094-0.926,2.896-2.08-2.156-7.311-0.264-17.52-1.281-25.863,1.647-2.553,5.987-2.172,7.089,0.599z"/>
		<path d="m389.43,416.25c3.479,5.789-3.266,9.951-4.969,15.15-4.006-0.088-7.645,5.16-11.607,1.158-1.186-4.215,3.186-7.971,3.725-12.445,2.152-3.457,8.966-10.289,12.851-3.863z"/>
		<path fill="#ee3133" d="m298.71,426.77c-1.311,1.008,0.951,1.941-0.201,2.816,5.291,4.104,11.207-1.352,16.879-2.014,1.934,1.34,1.557,4.313,1.098,6.113-3.982,4.566-9.998,6.957-16.385,7.287-3.035,1.457-2.559,4.822-1.797,7.15,1.215,5.525,0.068,12.588,0.102,18.021-0.611,2.168-2.855,2.24-4.363,3.416-2.947-1.336-3.646-4.914-2.695-7.777,0.264-6.549,0.154-10.822-0.604-17.332-3.662-4.947-11.168-1.242-16.1-3.721-3.252,0.904-5.777-1.131-7.572-3.002-1.076-1.457,0.455-2.787,0.758-4.299,1.506-1.205,3.893-1.779,5.83-1.021,5.678-1.033,13.807,3.303,17.201-2.9,0.615-2.438-1.766-6.641,2.35-7.121,1.564-0.561,3.361-2.863,4.939-1.508-0.424,2.341,1.021,3.25,0.56,5.892z"/>
		<path fill="#FFF" d="m384.01,428.58c-3.518-1.035-6.422,6.152-8.303,1.428,2.957-0.553,2.266-4.656,5.195-5.232,1.265,0.919,4.907,1.439,3.108,3.804z"/>
		<path d="m236.98,453.04c4.596,1.168,8.561,6.125,9.422,10.613-0.025,4.152,1.566,9.842-2.289,13.08-0.516,2.156,1.365,5.195-1.52,6.436-4.422,1.486-11.838,3.072-15.787-0.766-3.018-2.371-0.975-7.355-4.148-9.201-9.012-0.344-18.545-0.549-26.344,4.035-3.977,0.297-6.643,3.021-10.766,2.611-8.561,2.988-18.27,8.732-18.943,18.105-3.01,4.006,4.445,3.416,3.199,7.77,6.957,5.459,13.131,13.152,21.893,15.762,0.014,0.334,0.033,0.527,0.025,0.832,11.199,3.902,20.391,13.104,31.773,16.949,5.074,2.584,9.758,6.432,14.412,10.135,3.387-9.941,2.43-18.598,2.717-29.621-1.748-4.646-1.238-10.457,1.051-14.566,1.818-1.541,3.709-2.613,5.781-3.383,1.6,2.264,2.307-1.717,4.057-1.248,3.65-0.436,7.322,0.996,8.824,4.299,0.742,5.242,4.711,10.127,2.291,15.637,0.783,6.4,1.717,13.408-1.369,19.398,0.355,0.352,0.732,0.967,1.256,0.82,3.441-10.801,2.984-22.971,8.352-32.975,1.615-2.01,3.676-3.199,6.078-3.492,3.885,2.16,4.408-2.139,6.99-3.604,4.275-1.219,7.406,0.168,10.926,1.854,3.756,2.324,2.518,6.982,5.199,9.348,0.742-3.498,2.863-6.5,5.941-8.121,1.037-0.342,1.896,0.27,2.098,0.762,2.268,0.098,4.475-6.84,7.887-2.74,3.285,0.088,6.178,2.766,7.631,5.332,1.256,5.854-1.465,12.039,1.494,17.186,2.332-2.576,9.143-1.453,8.084-5.693-1.006-8.49-0.85-18.701,8.359-23.088,5.623-2.703,12.061-5.881,18.545-4.262,7.184,2.855,11.256,9.615,14.262,15.564,1.156-6.287,6.18-10.531,11.961-12.906,2.938-0.363,5.563-1.164,7.85-2.992,6.002-2.01,11.75-6.857,18.523-5.074,3.754,2.289,5.098,6.521,5.756,10.445-0.619,1.293-2.49,2.545-1.055,3.951,1.795,1.127,1.326,3.574,0.865,5.035-4.068,2.961-9.988,1.713-14.748,3.328-1.523,1.014-6.254-0.254-6.162,3.006,1.955,1.244,2.592,3.508,3.504,5.473,2.684,2.469,5.238,5.219,7.746,7.916,4.725-6.729,6.613-17.453,17.352-17.963,2.08,0.693,6.393-0.41,7.873,2.143,4.396,2.135,9.951,2.5,13.221,6.598,2.135,2.193,1.75,5.559,3.061,8.133,0.934-2.879,3.688-7.203,7.715-7.678,3.973,0.051,8.975-4.412,11.604,0.754,2.438,0.127,4.379,1.471,6.352,2.521,1.264-1.475,0.824-3.936,0.275-5.506-2.178-3.262-7.121-5.529-5.387-9.98,2.828-3.729,5.299-7.137,7.078-11.248,1.352-1.029,2.498-2.234,4.416-1.816,5.652,3.094,8.113,9.725,11.453,15.023,1.391-3.951,3.885-7.547,5.803-11.336,7.455-9.787,19.197-16.418,33.092-14.137,3.863,1.039,7.088,4.346,9.729,6.736-0.277,5.563,2.055,12.73-2.654,15.857,2.625,1.863-0.398,3.102,0.725,5.521-2.9,2.088-4.672,6.73-9.018,5.111-2.641-1.281-5.814-2.324-6.107-5.396-0.021-1.301,0.246-3.299-1.658-3.08-2.854,1.75-6.342,1.715-8.689,4.281,0.313,3.738,4.955,7.059,8.334,9.49,2.75,3.57,9.619,2.785,8.955,8.418,3.742,2.512,2.348,6.611,1.582,10.098-1.479,2.203-2.926,4.715-2.168,7.139-2.859,12.227-14.816,16.229-25.428,20.273-5.869,0.963-12.072,0.869-16.352-3.064-1.482-2.131-2.604-4.576-2.717-7.314,1.775-2.531,4.158-5.244,7.652-4.662,0.168-3.986,4.898-3.291,7.443-4.525,2.545-1.387,6.342-2.027,7.246-5.326,0.875-8.938-12.457-8.938-14.342-17.736-0.33,0.322-0.473,0.512-0.828,0.82,0.762,6.543,1.549,14.756-2.533,19.504-4.969,3.072-6.049,9.984-12.668,9.414-3.734-2.645-5.438-6.672-8.205-10.359-2.842,2.682-4.428,6.5-8.502,8.645-0.385,3.285-4.182,4.094-6.943,4.871-2.27-0.443-4.195-1.838-4.627-4.16-1.428-5.986,3.441-10.08,1.523-15.77-1.682,1.406-1.41,4.16-3.094,5.998-4.193,3.451-5.566,8.553-10.48,12.188-2.064,0.225-2.529,1.402-4.414,2.135-6.178,1.34-12.563,2.234-17.049-3.057-4.283-2.91-4.785-7.154-7.502-11.043,1.854,8.289-8.16,9.633-12.852,13.422-7.85,3.875-17.072,2.414-24.656-0.805-3.313-1.973-2.441-6.283-2.73-9.242,0.93-3.639,4.266-6.201,8.033-7.004-0.326-0.645,0.348-1.156,0.813-1.65,2.377-1.092,5.191-1.662,7.711-2.596,0.641-1.143,0.246-3.256-0.857-4.746-4.547-0.992-6.912-4.814-9.098-7.861-1.252,4.654,0.215,10.516-4.574,13.412-2.576-0.541-4.074,1.479-6.143,2.219-4.805,0.527-9.373,2.754-14.416,2.146-1.588,5.807-0.004,14.426-7.74,16.314-3.596,0.82-7.146-0.428-8.746-2.768-5.043-4.768,2.885-15.598-7.73-16.322-2.596,4.02-0.688,9.377-2.826,13.521-1.582,2.691,0.66,6.715-2.91,8.783,0.908,2.109-1.904,1.273-2.553,2.432-4.111,0.725-7.26-0.598-9.963-3.109-5.928-6.711-0.625-16.545-0.85-24.07-3.162,4.717-4.031,12.6-11.684,12.994-2.119-1.881-6.121-2.24-6.754-5.313-3.227,2.42-1.139,7.744-5.072,9.703-0.34,3.123-2.361,5.811-5.205,7.693-4.152,1.119-6.279-1.59-9.619-1.633-2.666-2.172-4.303-5.75-6.488-8.43-2.361,2.541-1.871,6.756-5.924,8.07,1.285,2.885-1.816,4.141-3.438,6.287-3.373,2.119-6.939,0.094-10.055-0.723-5.434-6.602-3.102,5.311-7.781,6.467-0.16,9.336-10.281,12.969-17.596,15.992-5.629,2.389-11.82,3.238-17.762,1.477-15.5-2.758-30.537,1.566-44.684-4.855-2.938-0.707-6.266-2.207-7.602-5.148-0.803-2.893-2.348-6.314-1.238-9.508,1.803-2.801,4.809-5.873,9.344-5.689,2.824-3.043,7.803-4.68,12.303-3.758,6.492,2.604,14.031,4.496,21.189,2.08,6.773,0.129,14.426,0.66,20.434,0.109,0.352-0.318,0.857-0.83,1.197-1.16-7.443-4.852-15.85-6.996-23.645-11.006-5.357-5.404-13.563-8.045-19.139-13.654-12.965-8.541-31.006-19.182-26.281-37.547,2.182-6.148,4.016-13.111,10.102-17.275,2.24-5.029,7.172-6.447,10.5-10.559,16.174-9.041,31.027-18.6,50.352-21.082,8.311,0.712,17.461-0.089,23.893,5.927z"/>
		<path fill="#ee3133" d="m229.84,451.63c5.191,3.756,14.756,5.385,14.539,13.744-0.063,3.16,1.469,7.832-2.475,9.135-7.697,1.582-0.234-8.068-8.238-8.445-14.832-7.529-33.1-0.82-47.313,3.994-4.102,5.492-13.057,2.398-16.242,9.725-6.379,1.146-7.217,7.787-8.209,12.73,1.207,4.189,1.219,9.645,5.463,11.658,1.588,5.857,8.813,9.014,12.393,13.785,3.18,1.523,6.596,4.396,10.275,5.568,14.535,8.854,31.045,15.5,44.932,25.975-0.131,1.85,2.268,1.398,2.695,3.061,1.49,7.326-0.922,13.467-6.803,18.219-5.086,3-10.855,1.221-15.221,5.357-4.621,1.607-10.563-0.992-15.367,1.377-6.762,0.014-12.354-2.406-19.109-2.193-7.154-1.385-15.289-2.105-21.84-5.953-2.178-1.736-1.395-5.395-1.189-7.832,2.197-2.193,6.869-2.352,10.336-1.82,5.064,1.619,10.164,2.918,15.902,2.545,9.607-2.453,19.42,2.127,28.09-2.135,3.148-0.109,6.656,1.414,9.201,0.029,2.617,0.729,3.943-1.465,6.146-1.361,2.238-1.707-0.461-3.285-1.336-4.705-6.99-1.084-7.313-10.453-15.184-8.523-9.457-6.697-20.164-10.105-29.676-15.832-2.846-2.029-3.885-6.422-8.557-5.602-4.039-2.008-5.924-6.697-10.281-8.008-1.502-2.938-6.748-3.211-6.496-6.861-3.057-2.652-2.68-6.764-5.381-9.648-2.846-6.803,2.35-11.848,2.639-18.135,2.783-4.346,8.104-5.873,9.963-10.984,17.109-10.889,34.926-21.559,57.121-20.852,2.843,1.38,6.109,1.273,9.222,1.987z"/>
		<path fill="#ee3133" d="m534.74,484.09c8.674,1.775,3.961,9.988,5.555,15.016-1.301,2.35-4.441,1.988-6.533,1.541-1.713-3.201,1.139-6.58-2.918-8.539-5.682,0.631-11.148,2.473-14.627,7.209-3.709,2.926-1.992,7.74-4.625,11.143,3.908,6.732,10.926,9.904,17.15,14.635,1.033,4.074,5.65,7.527,2.9,12.195-3.889,8.016-11.73,11.846-18.816,16.422-5.561-0.52-10.705,5.123-15.41,0.535-3.537-7.781,6.594-5.336,9.537-9.045,5.342-1.479,11.152-3.35,13.947-8.369,0.834-3.771-2.486-5.961-5.35-7.678-5.232-1.135-5.814-7.334-11.574-8.305-2.039-5.35-3.646-11.34-0.896-16.861,2.115-8.729,10.684-15.783,18.855-19.152,1.67-2.855,5.291-2.16,8.268-1.809,1.117,1.493,3.277,0.066,4.537,1.062z"/>
		<path fill="#ee3133" d="m414.44,491.01c1.623,1.223,0.674,3.602,1.096,5.389-5.426,3.604-14.148,1.428-18.102,7.355-4.814,0.813-0.686,5.229-3,7.953,3.311,6.404,9.381,10.641,13.043,16.916,1.381,3.918,0.322,7.896-0.426,12.152-5.605,6.924-15.992,7.432-24.658,6.791-3.211-2.014-2.838-6.17-2.436-9.428,4.91-3.818,12.826-1.121,17.264-5.676-1.164-4.309-4.273-9.088-9.008-10.695-3.844-6.426-7.967-14.66-2.521-21.572,6.008-4.973,12.166-8.916,19.152-12.166,3.621,0.056,8.242-0.927,9.596,2.981z"/>
		<path fill="#ee3133" d="m370.04,503.04c0.52,4.898,5.049,9.156,2.977,14.18,2.701,3.813-2.018,6.082-3.324,9.121-6.58,1.037-12.859,3.705-19.846,2.629-4.836,4.918,3.756,17.293-7.352,16.049-1.988-1.949-1.615-5.082-2.402-7.467-0.732-2.16,0.037-5.137-2.604-6.543-1.908-0.23-3.658,0.201-5.086-1.102,1.967-2.68-2.939-5.305,0.959-7.045,2.594-0.453,5.35-0.662,7.35-2.215-0.107-8.904,1.65-17.297,7.096-24.238,3.115-0.582,3.693-4.018,7.338-3.387,7.084-0.396,11.244,5.067,14.894,10.018z"/>
		<path fill="#ee3133" d="m491.07,507.24c-0.648,10.684,4.924,26.85-7.832,32.85-5.17,1.23-8.447-3.914-11.492-6.611-2.176,2.236-2.184,5.76-4.387,8.336-1.967,2.355-4.09,6.016-8.088,5.369,0.23-3.482,0.055-6.885,1.68-9.92-1.332-4.221,0.209-8.355,1.33-12.162-1.414-1.117-0.982-3.549-0.557-5.068,1.16-1.205,1.432-3.668,3.547-3.248,1.67,3.252,5.379,1.633,7.539,3.691,3.193,2.01,3.955,8.381,9.473,7.543,3.4-2.406-0.063-7.09,2.6-9.611-1.088-5.057-1.428-10.256-5.496-13.914,0.604-0.652,0.23-1.621,0.406-2.471-1.574-1.271-2.994-1.729-1.863-3.855,1.498-1.418,0.578-3.992,3.102-4.893,5.944,2.611,7.069,9.109,10.038,13.964z"/>
		<path fill="#ee3133" d="m258.31,506.24c0.025,5.4,4.713,10.348,1.469,15.707,2.713,4.273-0.883,8.916,0.479,13.266-3.463,5.701,2.691,12.662-2.668,18.301-2.373,1.223-4.471,0.963-7.066,0.516-2.189-3.018-0.803-7.488-1.971-10.852,1.477-7.936,3.123-14.709,1.98-22.928,3.787-5.135-2.76-12.336,1.439-17.352,3.424-1.344,5.25,1.383,6.338,3.342z"/>
		<path fill="#ee3133" d="m295.37,506.45c1.418,5.65,4.365,10.713,5.99,16.33,0.686,0.307,1.076,1.629,2.088,1.051,2.701-2.211,2.061-5.605,2.65-8.732,3.303-3.604,3.998-8.377,7.473-12.105,3.002,0.41001,6.359,1.828,7.609,4.537,0.822,7.023-0.883,13.127,2.324,19.582,1.102,7.322-1.303,13.158-1.348,20.885-1.516,1.35-3.482,4.48-6.141,3.463-1.578-1.725-2.219-4.342-1.42-6.639,2.361-6.318,1.633-12.676,1.391-19.4-1.068-0.619-1.076-2.092-2.512-2.197-3.613,0.604-4.363,4.547-6.506,6.861-2.193,2.412-2.871,6.723-7.582,5.744-5.277-1.973-3.098-9.064-7.883-11.521,0.098-2.131,1.039-5.453-1.104-7.041-3.777,1.441-2.932,5.832-3.475,9.143-3.537,3.27,2.297,6.979-1.193,10.369,0.832,3.764-0.172,9.365-3.723,11.961-2.971-0.75-5.551-1.143-6.932-4.207-0.314-8.805,2.549-16.678,2.939-25.18,2.004-2.186-0.156-4.451,0.957-6.754,2.467-3.377,3.133-8.535,7.623-10.158,3.445-0.232,6.923,0.95101,8.775,4.008z"/>
		<path d="m366.25,512.34c1.422,1.465,0.92,2.574,0.477,4.262-1.113,2.611-4.621,1.744-6.857,2.527-3.416,0.092-6.799,2.039-10.014,0.352-1.502-3.574,2.529-6.643,0.875-10.209,2.156-2.395,1.805-6.795,5.609-7.721,6.879-0.418,5.276,7.656,9.91,10.789z"/>
		<path fill="#FFF" d="m358.47,517.17c-2.102-0.047-9.277,2.822-6.354-2.357,1.48-2.352,0.346-5.576,2.307-7.627,1.539,3.243,4.227,6.081,4.047,9.984z"/>
		<path fill="#ee3133" d="m441.42,514c3.596,3.023,5.906,6.037,6.283,10.76,2.061,5.035,2.752,12.725-1.451,16.957-2.877,2.434-5.242,3.625-8.439,5.561-5.623-0.344-12.217,1.883-15.514-2.768-3.998-4.068-5.418-9.775-4.408-15.582,8.502-4.705,0.162-15.58,10.582-19.213,4.998-0.336,8.461,4.617,12.947,4.285z"/>
		<path d="m440.28,524.69c0.92,1.945,1.893,4.357,1.098,6.684-3.58,1.281-0.625,6.447-4.756,7.205-3.492-0.846-9.783,2.646-10.453-2.391-0.736-4.893,1.6-8.92,3.172-13.105,3.353-2.086,8.708-2.395,10.939,1.607z"/>
		<path fill="#FFF" d="m436.83,534.65c0.373,0.979-0.285,1.842-1.139,2.008-2.299-0.084-4.701,0.49-6.59-0.271-1.201-3.563-0.619-7.494,2.018-10.215,4.056,1.867,0.658,7.681,5.711,8.478z"/>
		<path fill="#ee3133" d="m539.57,554.06h-2.584v-1.816h7.352v1.816h-2.613v7.748h-2.154v-7.748z"/>
		<path fill="#ee3133" d="m553.52,558.14c-0.045-1.148-0.088-2.525-0.088-3.93h-0.029c-0.309,1.219-0.707,2.582-1.078,3.703l-1.162,3.732h-1.688l-1.023-3.689c-0.314-1.135-0.625-2.482-0.867-3.746h-0.029c-0.037,1.289-0.096,2.766-0.154,3.959l-0.186,3.633h-2l0.611-9.564h2.879l0.936,3.207c0.314,1.092,0.6,2.283,0.811,3.406h0.059c0.252-1.107,0.58-2.355,0.906-3.436l1.012-3.178h2.836l0.51,9.564h-2.1l-0.156-3.661z"/>
	</g>
</svg>
